<?xml version="1.0" encoding="utf-8"?>
<!-- Generator: Adobe Illustrator 18.1.0, SVG Export Plug-In . SVG Version: 6.00 Build 0)  -->
<svg version="1.1" id="icon" xmlns="http://www.w3.org/2000/svg" xmlns:xlink="http://www.w3.org/1999/xlink" x="0px" y="0px"
	 viewBox="-589 351 100 100" enable-background="new -589 351 100 100" xml:space="preserve">
<path id="cat" d="M-519.8,418.9v14.7l3.7,2c0.9,0.5,1.2,1.6,0.7,2.5c-0.3,0.6-1,1-1.6,1c-0.3,0-0.6-0.1-0.9-0.2l-4.6-2.5
	c-0.6-0.3-1-0.9-1-1.6v-16.2c0-0.3,0.1-0.6,0.2-0.8l2.1-4.2v-11.1c0,0,0-0.1,0-0.1c0-0.6,0.3-1.3,0.9-1.6l6.4-4l1.7-5.1l-5.6-5.8
	h-3.8c-1,0-1.9-0.8-1.9-1.9c0-1,0.8-1.9,1.9-1.9h4.6c0.5,0,1,0.2,1.3,0.6l6.9,7.2c0.5,0.5,0.6,1.2,0.4,1.9l-2.3,6.8
	c-0.1,0.4-0.4,0.7-0.8,1l-6.1,3.8v10.7c0,0.3-0.1,0.6-0.2,0.8L-519.8,418.9z M-544.3,437c0,1,0.8,1.9,1.9,1.9h13.9
	c0.6,0,1.1-0.3,1.5-0.7c0.4-0.4,0.5-1,0.3-1.6l-4.6-18.5c-0.2-1-1.3-1.6-2.2-1.3c-1,0.2-1.6,1.3-1.3,2.2l4.1,16.2h-11.5
	C-543.5,435.1-544.3,435.9-544.3,437z M-523.2,375.1c-0.9-0.4-2,0-2.5,0.9l-11.3,24.8c-1.4,0.7-4.7,2.5-8,5.9
	c-3.9,3.9-8.6,10.8-8.6,21v6.9c0,0.9-0.7,1.6-1.6,1.6c-0.9,0-1.6-0.7-1.6-1.6v-11.6c0-8.2-1.7-14.1-5.2-17.4c-2.8-2.7-5.6-2.7-6-2.7
	c-1,0-1.8,0.9-1.8,1.9c0,1,0.9,1.8,1.9,1.8l0,0c0,0,1.6,0,3.3,1.7c1.9,1.8,4.1,5.8,4.1,14.8v12c0,0.2,0,0.4,0.1,0.6
	c0.5,2.4,2.6,4.3,5.2,4.3c2.9,0,5.3-2.4,5.3-5.3v-6.9c0-17,14.5-23.5,15.1-23.8c0,0,0,0,0,0c0.1,0,0.2-0.1,0.3-0.2c0,0,0,0,0.1-0.1
	c0.1,0,0.1-0.1,0.2-0.2c0,0,0,0,0.1-0.1c0.1-0.1,0.1-0.2,0.2-0.3c0,0,0,0,0,0c0-0.1,0.1-0.1,0.1-0.2l11.6-25.5
	C-521.8,376.6-522.3,375.5-523.2,375.1z"/>
</svg>
